<!-- Create this as public/favicon.svg -->
<svg width="32" height="32" viewBox="0 0 32 32" xmlns="http://www.w3.org/2000/svg">
  <rect width="32" height="32" rx="6" fill="#3b82f6"/>
  <rect x="4" y="8" width="24" height="16" rx="3" fill="white"/>
  <circle cx="2" cy="16" r="4" fill="#f3f4f6"/>
  <circle cx="30" cy="16" r="4" fill="#f3f4f6"/>
  <rect x="8" y="12" width="16" height="2" fill="#3b82f6"/>
  <rect x="8" y="15" width="12" height="1" fill="#94a3b8"/>
  <rect x="8" y="17" width="14" height="1" fill="#94a3b8"/>
  <rect x="8" y="19" width="10" height="1" fill="#94a3b8"/>
  <rect x="22" y="18" width="6" height="6" rx="1" fill="#1d4ed8"/>
  <rect x="23" y="19" width="1" height="1" fill="white"/>
  <rect x="25" y="19" width="1" height="1" fill="white"/>
  <rect x="27" y="19" width="1" height="1" fill="white"/>
  <rect x="23" y="21" width="1" height="1" fill="white"/>
  <rect x="25" y="21" width="1" height="1" fill="white"/>
  <rect x="27" y="21" width="1" height="1" fill="white"/>
  <rect x="23" y="23" width="1" height="1" fill="white"/>
  <rect x="25" y="23" width="1" height="1" fill="white"/>
  <rect x="27" y="23" width="1" height="1" fill="white"/>
</svg>